<svg id="visual" viewBox="0 0 960 300" width="960" height="300" xmlns="http://www.w3.org/2000/svg" xmlns:xlink="http://www.w3.org/1999/xlink" version="1.1"><path d="M0 203L12.3 192C24.7 181 49.3 159 74 152.5C98.7 146 123.3 155 148 154C172.7 153 197.3 142 221.8 143.8C246.3 145.7 270.7 160.3 295.2 170.8C319.7 181.3 344.3 187.7 369 191C393.7 194.3 418.3 194.7 443 183.2C467.7 171.7 492.3 148.3 517 133.8C541.7 119.3 566.3 113.7 591 124.5C615.7 135.3 640.3 162.7 664.8 173.2C689.3 183.7 713.7 177.3 738.2 163.3C762.7 149.3 787.3 127.7 812 129.7C836.7 131.7 861.3 157.3 886 160.8C910.7 164.3 935.3 145.7 947.7 136.3L960 127L960 301L947.7 301C935.3 301 910.7 301 886 301C861.3 301 836.7 301 812 301C787.3 301 762.7 301 738.2 301C713.7 301 689.3 301 664.8 301C640.3 301 615.7 301 591 301C566.3 301 541.7 301 517 301C492.3 301 467.7 301 443 301C418.3 301 393.7 301 369 301C344.3 301 319.7 301 295.2 301C270.7 301 246.3 301 221.8 301C197.3 301 172.7 301 148 301C123.3 301 98.7 301 74 301C49.3 301 24.7 301 12.3 301L0 301Z" fill="#ff5964"></path><path d="M0 175L12.3 184.7C24.7 194.3 49.3 213.7 74 223.8C98.7 234 123.3 235 148 226.2C172.7 217.3 197.3 198.7 221.8 195.5C246.3 192.3 270.7 204.7 295.2 208.8C319.7 213 344.3 209 369 205.5C393.7 202 418.3 199 443 195.5C467.7 192 492.3 188 517 194.7C541.7 201.3 566.3 218.7 591 219.3C615.7 220 640.3 204 664.8 197.3C689.3 190.7 713.7 193.3 738.2 188.5C762.7 183.7 787.3 171.3 812 165C836.7 158.7 861.3 158.3 886 166C910.7 173.7 935.3 189.3 947.7 197.2L960 205L960 301L947.7 301C935.3 301 910.7 301 886 301C861.3 301 836.7 301 812 301C787.3 301 762.7 301 738.2 301C713.7 301 689.3 301 664.8 301C640.3 301 615.7 301 591 301C566.3 301 541.7 301 517 301C492.3 301 467.7 301 443 301C418.3 301 393.7 301 369 301C344.3 301 319.7 301 295.2 301C270.7 301 246.3 301 221.8 301C197.3 301 172.7 301 148 301C123.3 301 98.7 301 74 301C49.3 301 24.7 301 12.3 301L0 301Z" fill="#cd579a"></path><path d="M0 192L12.3 198.2C24.7 204.3 49.3 216.7 74 219.2C98.7 221.7 123.3 214.3 148 216.2C172.7 218 197.3 229 221.8 229.7C246.3 230.3 270.7 220.7 295.2 224.5C319.7 228.3 344.3 245.7 369 248.2C393.7 250.7 418.3 238.3 443 228.8C467.7 219.3 492.3 212.7 517 217.2C541.7 221.7 566.3 237.3 591 245.7C615.7 254 640.3 255 664.8 248.5C689.3 242 713.7 228 738.2 218.8C762.7 209.7 787.3 205.3 812 211.2C836.7 217 861.3 233 886 234.2C910.7 235.3 935.3 221.7 947.7 214.8L960 208L960 301L947.7 301C935.3 301 910.7 301 886 301C861.3 301 836.7 301 812 301C787.3 301 762.7 301 738.2 301C713.7 301 689.3 301 664.8 301C640.3 301 615.7 301 591 301C566.3 301 541.7 301 517 301C492.3 301 467.7 301 443 301C418.3 301 393.7 301 369 301C344.3 301 319.7 301 295.2 301C270.7 301 246.3 301 221.8 301C197.3 301 172.7 301 148 301C123.3 301 98.7 301 74 301C49.3 301 24.7 301 12.3 301L0 301Z" fill="#7d63a8"></path><path d="M0 235L12.3 233.2C24.7 231.3 49.3 227.7 74 231.7C98.7 235.7 123.3 247.3 148 256.8C172.7 266.3 197.3 273.7 221.8 273.3C246.3 273 270.7 265 295.2 263.3C319.7 261.7 344.3 266.3 369 263.3C393.7 260.3 418.3 249.7 443 252.7C467.7 255.7 492.3 272.3 517 274.2C541.7 276 566.3 263 591 252.3C615.7 241.7 640.3 233.3 664.8 235C689.3 236.7 713.7 248.3 738.2 255C762.7 261.7 787.3 263.3 812 260.5C836.7 257.7 861.3 250.3 886 243.7C910.7 237 935.3 231 947.7 228L960 225L960 301L947.7 301C935.3 301 910.7 301 886 301C861.3 301 836.7 301 812 301C787.3 301 762.7 301 738.2 301C713.7 301 689.3 301 664.8 301C640.3 301 615.7 301 591 301C566.3 301 541.7 301 517 301C492.3 301 467.7 301 443 301C418.3 301 393.7 301 369 301C344.3 301 319.7 301 295.2 301C270.7 301 246.3 301 221.8 301C197.3 301 172.7 301 148 301C123.3 301 98.7 301 74 301C49.3 301 24.7 301 12.3 301L0 301Z" fill="#38618c"></path></svg>